# xmcd CD database file
#
# Track frame offsets:
#	150
#	10958
#	22807
#	36770
#	50831
#	63641
#	73289
#	85374
#	99362
#	109993
#	122516
#	133931
#	145420
#	156289
#	168995
#	182118
#	197912
#	210386
#	222707
#	232922
#	245168
#	258011
#	267853
#	278581
#	291884
#	304303
#	315902
#
# Disc length: 4353 seconds
#
# Revision: 2
# Processed by: cddbd v1.5.2PL0 Copyright (c) Steve Scherf et al.
# Submitted via: CDex 1.77
#
DISCID=9910ff1b
DTITLE=Howlin' Wolf - The Complete RPM and Chess Singles As and Bs CD2
DYEAR=2014
DGENRE=Blues
TTITLE0=Come To Me Baby
TTITLE1=Don't Mess With My Baby
TTITLE2=Smokestack Lightnin' 
TTITLE3=You Can't Be Beat
TTITLE4=I Asked For Water
TTITLE5=So Glad
TTITLE6=Goin' Back Home
TTITLE7=My Life
TTITLE8=Somebody In My Home
TTITLE9=Nature
TTITLE10=Poor Boy
TTITLE11=Sittin' On Top Of The World
TTITLE12=I Didn't Know
TTITLE13=Moaning For My Baby
TTITLE14=I'm Leaving You
TTITLE15=Change My Ways
TTITLE16=Howlin' Blues
TTITLE17=I Better Go Now
TTITLE18=I'ver Been Abused
TTITLE19=Mister Airplane Man
TTITLE20=You Gonna Wreck My Life
TTITLE21=The Natchez Burning
TTITLE22=Who's Been Talking
TTITLE23=Tell Me
TTITLE24=Spoonful
TTITLE25=Howlin' For My Baby
TTITLE26=Wang Dang Doodle
EXTD=YEAR: 2014
EXTT0=
EXTT1=
EXTT2=
EXTT3=
EXTT4=
EXTT5=
EXTT6=
EXTT7=
EXTT8=
EXTT9=
EXTT10=
EXTT11=
EXTT12=
EXTT13=
EXTT14=
EXTT15=
EXTT16=
EXTT17=
EXTT18=
EXTT19=
EXTT20=
EXTT21=
EXTT22=
EXTT23=
EXTT24=
EXTT25=
EXTT26=
PLAYORDER=
